<svg width="600" height="300" viewBox="0 0 600 300" fill="none" xmlns="http://www.w3.org/2000/svg">
<path d="M72.3214 0L144.643 34.4624V64.2857L72.3214 29.8233L9.44604e-06 64.2857L8.14242e-06 34.4624L72.3214 0Z" fill="#312E81"/>
<path d="M72.3214 77.6786C32.3725 77.6786 9.44604e-06 110.051 9.44604e-06 150C9.44604e-06 189.949 32.3725 222.321 72.3214 222.321C112.27 222.321 144.643 189.949 144.643 150C144.643 110.051 112.27 77.6786 72.3214 77.6786Z" fill="#312E81"/>
<path d="M72.3214 300L0 265.538L1.30362e-06 235.714L72.3214 270.177L144.643 235.714V265.538L72.3214 300Z" fill="#312E81"/>
<path fill-rule="evenodd" clip-rule="evenodd" d="M286.607 77.6786C246.658 77.6786 214.286 110.051 214.286 150C214.286 189.949 246.658 222.321 286.607 222.321C326.556 222.321 358.929 189.949 358.929 150C358.929 110.051 326.556 77.6786 286.607 77.6786ZM241.837 150C241.837 174.727 261.88 194.77 286.607 194.77C311.334 194.77 331.378 174.727 331.378 150C331.378 125.273 311.334 105.23 286.607 105.23C261.88 105.23 241.837 125.273 241.837 150Z" fill="#312E81"/>
<path fill-rule="evenodd" clip-rule="evenodd" d="M447.549 165.566C466.176 160.401 479.891 143.181 480.028 122.793V122.449V122.105C479.823 97.5153 460.035 77.6786 435.676 77.6786H377.679V103.714L399.513 139.599H377.747V222.321H405.04V167.151H416.503L450.053 222.321H482.143L447.549 165.566ZM431.719 139.668H435.745C445.161 139.668 452.803 131.954 452.803 122.449C452.803 112.944 445.161 105.23 435.745 105.23H410.635L431.719 139.668Z" fill="#312E81"/>
<path d="M527.813 222.321H496.875L533.175 150.069L496.875 77.6786H527.813L548.506 119.281L569.75 77.6786H600L527.813 222.321Z" fill="#312E81"/>
</svg>
